<?xml version="1.0" encoding="UTF-8" standalone="no"?>
<!-- Created with Inkscape (http://www.inkscape.org/) -->

<svg
   width="64mm"
   height="64mm"
   viewBox="0 0 64 64"
   version="1.1"
   id="svg1"
   xml:space="preserve"
   inkscape:version="1.3.2 (091e20e, 2023-11-25, custom)"
   sodipodi:docname="of-three.svg"
   xmlns:inkscape="http://www.inkscape.org/namespaces/inkscape"
   xmlns:sodipodi="http://sodipodi.sourceforge.net/DTD/sodipodi-0.dtd"
   xmlns="http://www.w3.org/2000/svg"
   xmlns:svg="http://www.w3.org/2000/svg"><sodipodi:namedview
     id="namedview1"
     pagecolor="#ffffff"
     bordercolor="#000000"
     borderopacity="0.25"
     inkscape:showpageshadow="2"
     inkscape:pageopacity="0.0"
     inkscape:pagecheckerboard="0"
     inkscape:deskcolor="#d1d1d1"
     inkscape:document-units="mm"
     inkscape:zoom="2.0215508"
     inkscape:cx="86.072534"
     inkscape:cy="96.213264"
     inkscape:window-width="1920"
     inkscape:window-height="991"
     inkscape:window-x="-9"
     inkscape:window-y="-9"
     inkscape:window-maximized="1"
     inkscape:current-layer="layer1" /><defs
     id="defs1" /><g
     inkscape:label="Layer 1"
     inkscape:groupmode="layer"
     id="layer1"><g
       id="g3"
       transform="matrix(2.9882248,0,0,2.9882248,-2.3954934,-823.99124)"><path
         style="fill:#000000;stroke:none;stroke-width:0.1;stroke-linecap:round;stroke-miterlimit:2;stroke-dasharray:none;paint-order:fill markers stroke"
         d="m 9.832541,277.33328 c 0,0 -0.064195,1.74398 -0.5242597,2.38594 -0.4600644,0.64193 -2.952972,0.80242 -2.952972,0.80242 3.0346538,0.39274 3.1782182,1.08765 3.4344348,4.10848 0,0 0.2353819,-3.05996 0.9736249,-3.47722 0.738243,-0.41727 2.642696,-0.58846 2.642696,-0.58846 0,0 -2.46081,0.12839 -2.899476,-0.66335 -0.438666,-0.79174 -0.674048,-2.56781 -0.674048,-2.56781 z"
         id="path1"
         sodipodi:nodetypes="csccscsc" /><path
         style="fill:#000000;fill-opacity:1;stroke:none;stroke-width:0.1;stroke-linecap:round;stroke-miterlimit:2;stroke-dasharray:none;paint-order:fill markers stroke"
         d="m 5.9861979,285.43522 c 0.2100294,2.67506 -0.4205445,4.22415 1.8134996,4.76917 1.0057225,0.13909 3.3916385,0.0856 3.3916385,0.0856 0,0 -3.2525488,-0.0107 -4.2689704,0.54566 -1.0164215,0.55636 -0.7596413,2.70689 -0.8131372,4.45086 -0.095698,-2.41095 0.1918217,-5.01872 -2.9422729,-4.90023 l -2.22542818,-0.0642 c 1.95691318,-0.16059 4.84698998,0.40729 4.95907728,-1.752 0.048887,-0.94178 0.085593,-3.13487 0.085593,-3.13487 z"
         id="path2"
         sodipodi:nodetypes="cscscccscc" /><path
         style="fill:#000000;fill-opacity:1;stroke:none;stroke-width:0.1;stroke-linecap:round;stroke-miterlimit:2;stroke-dasharray:none;paint-order:fill markers stroke"
         d="m 15.331916,279.90109 0.0107,3.84101 c 0,0 0.07489,1.65836 0.995023,2.18263 0.920129,0.52424 0.834536,0.79174 5.734758,0.72755 0,0 -4.268971,0.0749 -4.878824,0.32097 -2.541197,1.0645 -1.546919,4.14728 -1.883051,6.4944 -0.289838,-2.92468 0.701881,-6.60804 -2.863729,-6.68972 -2.8621158,-0.0656 -4.090734,-0.13636 -4.090734,-0.13636 0,0 4.004221,-0.0107 4.504352,-0.0642 0.481678,-0.0515 2.278924,-1.00572 2.33242,-2.5571 0.0535,-1.55138 0.139089,-4.11919 0.139089,-4.11919 z"
         id="path3"
         sodipodi:nodetypes="ccscscscsscc" /></g></g></svg>
